<?xml version="1.0" standalone="no"?>
<!DOCTYPE svg PUBLIC "-//W3C//DTD SVG 20010904//EN"
 "http://www.w3.org/TR/2001/REC-SVG-20010904/DTD/svg10.dtd">
<svg version="1.0" xmlns="http://www.w3.org/2000/svg"
 width="900.000000pt" height="900.000000pt" viewBox="0 0 900.000000 900.000000"
 preserveAspectRatio="xMidYMid meet">

<g transform="translate(0.000000,900.000000) scale(0.100000,-0.100000)"
fill="#FFFFF" stroke="none">
<path d="M1740 7742 c0 -4 38 -42 85 -85 l86 -77 1397 0 c1529 -1 1541 -1
1827 -59 207 -42 481 -143 675 -251 535 -295 953 -767 1165 -1315 62 -159 68
-179 103 -325 30 -123 41 -188 62 -343 12 -97 13 -439 1 -521 -5 -34 -15 -99
-21 -146 -73 -515 -361 -1062 -757 -1440 -348 -333 -782 -562 -1238 -655 -248
-51 -160 -48 -1732 -54 l-1472 -6 -85 -75 c-46 -41 -85 -78 -85 -82 -1 -5 683
-8 1520 -8 1588 0 1575 0 1804 42 160 29 482 120 520 147 6 4 33 16 60 26 126
46 368 181 520 289 243 174 462 394 645 646 104 144 267 446 320 595 63 176
114 355 133 465 38 216 47 315 47 512 0 214 -9 307 -51 518 -72 362 -177 627
-371 935 -103 163 -136 207 -280 372 -129 147 -328 319 -513 443 -27 18 -62
42 -77 52 -15 10 -30 18 -33 18 -3 0 -24 11 -46 26 -99 62 -341 172 -489 220
-152 50 -401 106 -528 119 -31 3 -95 10 -142 15 -103 12 -3050 13 -3050 2z"/>
<path d="M2102 7412 c2 -5 41 -43 87 -85 l84 -77 1181 0 c1229 -1 1356 -4
1566 -45 106 -20 270 -67 375 -107 80 -31 298 -137 345 -169 14 -9 52 -33 85
-54 152 -97 374 -299 506 -462 327 -403 504 -929 485 -1445 -7 -197 -18 -289
-55 -453 -72 -316 -240 -653 -462 -922 -123 -149 -334 -333 -519 -452 -184
-119 -532 -259 -735 -296 -228 -42 -321 -44 -1995 -45 l-765 0 -90 -85 -90
-84 1365 2 c1038 2 1382 6 1435 15 212 38 316 63 450 109 374 127 659 305 940
588 194 194 326 379 450 630 94 191 173 427 201 600 3 22 8 43 9 46 2 3 7 32
10 65 4 32 10 88 15 124 12 84 12 335 0 427 -5 40 -12 96 -15 125 -3 29 -8 60
-10 68 -2 8 -7 31 -10 50 -9 52 -53 226 -74 289 -27 81 -107 273 -137 328 -80
146 -99 180 -143 246 -123 185 -284 366 -440 496 -273 225 -497 350 -837 467
-60 20 -277 70 -364 83 -41 6 -133 16 -203 21 -154 12 -2650 14 -2645 2z"/>
<path d="M2555 6995 l90 -85 1050 -2 c1085 -1 1102 -1 1169 -13 23 -4 55 -9
71 -11 71 -11 229 -55 321 -89 250 -93 475 -238 669 -430 279 -276 445 -585
531 -995 14 -63 34 -274 34 -350 -1 -183 -38 -406 -101 -595 -185 -558 -624
-1000 -1182 -1189 -130 -44 -280 -79 -382 -90 -27 -3 -529 -8 -1115 -12
l-1065 -6 -84 -77 -84 -76 884 -8 c1199 -10 1435 -4 1664 42 138 28 284 75
403 131 35 17 65 30 68 30 15 0 298 171 314 189 3 3 25 20 49 36 44 30 262
240 317 305 211 253 391 630 445 935 18 103 39 303 39 380 0 106 -25 328 -49
440 -68 310 -199 588 -396 840 -79 100 -285 302 -386 378 -296 220 -660 362
-1019 397 -53 5 -597 9 -1220 9 l-1125 0 90 -84z"/>
<path d="M2830 6746 c0 -3 40 -41 90 -85 l90 -81 858 0 c714 0 875 -3 959 -15
367 -55 704 -241 946 -523 192 -223 309 -467 364 -762 19 -104 22 -409 4 -490
-6 -30 -17 -80 -23 -110 -16 -82 -74 -243 -123 -345 -167 -343 -465 -617 -830
-763 -91 -36 -256 -80 -330 -88 -27 -3 -57 -7 -65 -11 -8 -3 -408 -7 -888 -9
l-874 -4 -84 -76 c-46 -42 -84 -79 -84 -83 0 -3 426 -6 948 -6 1023 0 1025 0
1236 55 306 81 598 250 812 472 286 295 447 654 484 1079 33 363 -74 760 -290
1083 -161 240 -375 432 -640 572 -153 81 -372 155 -509 171 -24 2 -54 8 -66
13 -22 8 -1985 15 -1985 6z"/>
<path d="M3200 6409 c0 -3 38 -40 85 -82 l86 -77 662 0 c687 0 734 -3 889 -44
152 -41 302 -118 445 -229 216 -168 384 -449 439 -737 16 -86 19 -343 4 -408
-6 -23 -13 -59 -16 -80 -12 -77 -81 -252 -132 -337 -62 -104 -112 -167 -211
-266 -165 -165 -375 -279 -606 -328 -110 -24 -316 -31 -885 -31 l-595 -1 -85
-79 -85 -80 795 3 c437 2 808 6 823 10 338 68 588 202 802 428 172 182 292
414 352 679 23 105 23 444 0 546 -73 319 -216 563 -457 779 -131 118 -320 224
-495 279 -73 22 -98 29 -160 40 -11 2 -40 7 -65 12 -50 10 -1590 12 -1590 3z"/>
<path d="M3562 6081 c2 -6 41 -44 87 -85 l83 -76 77 0 c42 0 249 0 461 0 406
0 488 -6 612 -49 217 -75 399 -231 507 -433 127 -238 136 -540 22 -782 -115
-246 -315 -417 -581 -497 -72 -22 -93 -23 -586 -28 l-510 -6 -87 -80 -88 -80
83 -3 c155 -6 1103 5 1138 12 234 52 397 136 557 289 207 198 323 470 323 757
0 297 -108 552 -324 764 -119 116 -232 186 -399 245 -162 57 -219 61 -828 61
-342 0 -549 -4 -547 -9z"/>
<path d="M3922 5752 c2 -5 41 -43 88 -85 l84 -77 262 0 c190 0 284 -4 341 -15
221 -42 396 -207 449 -425 37 -155 -4 -343 -104 -470 -64 -83 -150 -145 -260
-187 -66 -26 -71 -27 -376 -31 l-309 -4 -71 -66 c-39 -36 -80 -74 -91 -84 -20
-19 -15 -19 385 -15 428 4 431 5 559 56 124 50 261 165 334 282 35 55 84 164
91 204 3 11 9 40 15 65 6 25 11 81 11 125 0 267 -163 531 -402 647 -98 48
-142 62 -248 78 -78 12 -763 14 -758 2z"/>
<path d="M4375 5336 l90 -85 85 -1 c107 0 146 -11 198 -55 43 -37 82 -120 82
-174 0 -77 -53 -162 -122 -197 -46 -23 -63 -26 -144 -25 l-91 2 -89 -81 c-49
-45 -90 -86 -92 -91 -6 -16 326 -11 391 6 163 42 274 159 308 323 34 162 -64
345 -227 427 l-59 30 -210 3 -210 3 90 -85z"/>
<path d="M2244 1580 c-50 -20 -70 -89 -36 -129 9 -11 44 -35 77 -54 64 -35 77
-57 49 -88 -24 -27 -68 -24 -96 6 -21 22 -26 24 -43 11 -18 -13 -18 -15 -1
-40 37 -57 130 -60 179 -6 52 58 28 116 -68 168 -27 15 -51 35 -53 45 -8 41
44 62 83 33 27 -20 59 -3 45 23 -17 33 -90 50 -136 31z"/>
<path d="M5645 1578 c-36 -13 -82 -53 -101 -90 -22 -42 -18 -119 9 -159 78
-116 236 -116 314 0 27 40 31 117 9 159 -43 82 -143 121 -231 90z m135 -36
c48 -24 80 -75 80 -127 0 -146 -203 -199 -280 -73 -57 94 17 218 130 218 19 0
51 -8 70 -18z"/>
<path d="M6363 1578 c-12 -6 -27 -23 -34 -39 -18 -44 2 -78 74 -124 55 -36 62
-44 65 -77 2 -28 -2 -40 -20 -52 -33 -23 -71 -20 -98 9 -27 28 -48 20 -31 -13
15 -28 64 -46 105 -38 49 9 78 49 74 100 -3 35 -9 45 -48 73 -25 17 -58 43
-75 57 -29 24 -29 26 -15 53 19 34 63 43 90 18 14 -12 20 -13 26 -4 10 17 -32
49 -65 48 -14 0 -36 -5 -48 -11z"/>
<path d="M1700 1410 l0 -173 96 5 c102 6 127 16 168 72 30 39 30 153 0 192
-41 56 -66 66 -168 72 l-96 5 0 -173z m179 106 c33 -18 51 -54 51 -106 0 -82
-41 -120 -130 -120 l-50 0 0 120 0 120 50 0 c28 0 63 -6 79 -14z"/>
<path d="M2060 1410 l0 -170 30 0 30 0 0 170 0 170 -30 0 -30 0 0 -170z"/>
<path d="M2460 1410 l0 -170 25 0 c23 0 24 3 27 77 l3 77 58 -77 c50 -67 62
-77 88 -77 24 0 29 3 22 13 -75 97 -103 136 -103 141 0 3 9 6 19 6 41 0 68 90
41 140 -13 24 -62 40 -126 40 l-54 0 0 -170z m128 108 c17 -17 15 -65 -4 -72
-9 -3 -29 -6 -45 -6 -28 0 -29 2 -29 45 0 44 1 45 33 45 18 0 38 -5 45 -12z"/>
<path d="M2730 1458 c0 -146 14 -186 70 -205 82 -28 162 -4 192 57 14 27 18
61 18 153 l0 117 -25 0 -25 0 0 -110 c0 -151 -15 -180 -96 -180 -24 0 -43 8
-59 25 -24 23 -25 30 -25 145 l0 120 -25 0 -25 0 0 -122z"/>
<path d="M3090 1411 l0 -171 25 0 c24 0 25 2 25 74 l0 73 58 6 c70 7 92 29 92
92 0 70 -21 87 -118 93 l-82 5 0 -172z m134 103 c36 -36 9 -74 -53 -74 -30 0
-31 1 -31 45 0 45 0 45 34 45 19 0 42 -7 50 -16z"/>
<path d="M3300 1555 c0 -23 3 -25 50 -25 l50 0 0 -145 0 -145 25 0 25 0 0 145
0 145 45 0 c41 0 45 2 45 25 l0 25 -120 0 -120 0 0 -25z"/>
<path d="M3590 1410 l0 -170 30 0 30 0 0 170 0 170 -30 0 -30 0 0 -170z"/>
<path d="M3682 1568 c38 -96 144 -316 150 -310 6 6 117 245 139 300 8 20 6 22
-19 22 -25 0 -31 -7 -52 -57 -13 -32 -34 -83 -48 -113 l-24 -54 -47 109 c-43
100 -49 110 -75 113 -21 3 -27 0 -24 -10z"/>
<path d="M4506 1426 c-85 -199 -81 -186 -63 -186 8 0 24 23 37 55 l22 55 72 0
72 0 18 -51 c16 -44 39 -70 51 -58 4 4 -126 324 -136 334 -4 3 -36 -64 -73
-149z m118 -23 c7 -22 5 -23 -48 -23 -31 0 -56 4 -56 9 0 5 7 26 16 47 9 22
21 50 26 64 10 24 11 24 33 -25 12 -27 25 -60 29 -72z"/>
<path d="M4750 1458 c0 -97 4 -130 18 -158 36 -73 163 -80 209 -11 21 31 23
45 23 162 0 105 -3 129 -14 129 -12 0 -15 -27 -18 -136 -3 -129 -4 -137 -27
-155 -15 -12 -38 -19 -65 -19 -80 1 -96 32 -96 189 0 101 -2 121 -15 121 -13
0 -15 -20 -15 -122z"/>
<path d="M5080 1410 l0 -173 86 6 c96 6 125 20 159 78 41 71 19 183 -46 231
-20 15 -49 21 -113 25 l-86 6 0 -173z m196 109 c55 -55 52 -170 -6 -221 -26
-25 -39 -28 -95 -28 l-65 0 0 141 0 141 70 -4 c59 -3 74 -8 96 -29z"/>
<path d="M5420 1410 c0 -144 2 -170 15 -170 13 0 15 26 15 170 0 144 -2 170
-15 170 -13 0 -15 -26 -15 -170z"/>
<path d="M5914 1564 c56 -151 122 -314 126 -314 3 0 35 75 72 165 55 137 64
165 49 165 -12 0 -29 -33 -66 -134 -28 -74 -53 -132 -56 -128 -4 4 -27 63 -52
132 -32 90 -49 126 -62 129 -14 2 -16 -1 -11 -15z"/>
<path d="M6210 1410 c0 -144 2 -170 15 -170 13 0 15 26 15 170 0 144 -2 170
-15 170 -13 0 -15 -26 -15 -170z"/>
<path d="M6570 1458 c0 -97 4 -130 18 -158 36 -73 163 -80 209 -11 21 31 23
45 23 162 0 105 -3 129 -14 129 -12 0 -15 -27 -18 -136 -3 -129 -4 -137 -27
-155 -15 -12 -38 -19 -65 -19 -80 1 -96 32 -96 189 0 101 -2 121 -15 121 -13
0 -15 -20 -15 -122z"/>
<path d="M6926 1426 c-85 -199 -81 -186 -63 -186 8 0 24 23 37 55 l22 55 72 0
72 0 18 -51 c16 -44 39 -70 51 -58 4 4 -126 324 -136 334 -4 3 -36 -64 -73
-149z m118 -23 c7 -22 5 -23 -48 -23 -31 0 -56 4 -56 9 0 5 7 26 16 47 9 22
21 50 26 64 10 24 11 24 33 -25 12 -27 25 -60 29 -72z"/>
<path d="M7180 1410 l0 -170 75 0 c60 0 75 3 75 15 0 12 -13 15 -60 15 l-60 0
0 155 c0 131 -2 155 -15 155 -13 0 -15 -26 -15 -170z"/>
<path d="M4043 1405 l-80 -165 28 0 c23 0 32 8 49 40 l20 40 69 0 68 0 18 -40
c15 -33 23 -40 47 -40 16 0 28 4 26 9 -14 37 -154 321 -159 321 -3 0 -41 -74
-86 -165z m112 15 l25 -50 -49 0 -50 0 22 50 c12 27 23 50 24 50 2 0 14 -22
28 -50z"/>
</g>
</svg>
