<svg width="122" height="122" viewBox="0 0 122 122" fill="none" xmlns="http://www.w3.org/2000/svg">
<g clip-path="url(#clip0)">
<path d="M42.7 91.4386V115.969C42.7 117.054 43.5793 117.933 44.6638 117.933H48.8695C49.954 117.933 50.8333 117.054 50.8333 115.969V91.4386H42.7Z" fill="#ABC4D6"/>
<path d="M32.5332 93.5332L23.4996 115.214C22.9605 116.508 23.911 117.933 25.3124 117.933H31.2241C32.017 117.933 32.7321 117.457 33.037 116.725L42.7 93.5332V91.4386H32.5332V93.5332Z" fill="#BDD3DD"/>
<path d="M61 93.5332L70.0336 115.214C70.5727 116.508 69.6222 117.933 68.2208 117.933H62.3091C61.5162 117.933 60.8014 117.457 60.4963 116.725L50.8332 93.5332V91.4386H61V93.5332Z" fill="#BDD3DD"/>
<path d="M28.4668 83.9272V91.5695C28.4668 92.654 29.346 93.5333 30.4305 93.5333H63.103C64.1875 93.5333 65.0667 92.654 65.0667 91.5695V83.9272H28.4668Z" fill="#A0C8FF"/>
<path d="M59.4209 83.9272V91.5695C59.4209 92.654 58.5416 93.5333 57.4571 93.5333H63.103C64.1875 93.5333 65.0667 92.654 65.0667 91.5695V83.9272H59.4209Z" fill="#91B2FA"/>
<path d="M91.324 48.8H103.876V65.0668H91.324V48.8Z" fill="#BDD3DD"/>
<path d="M66.6459 8.1333H79.7541V16.2666H66.6459V8.1333Z" fill="#BDD3DD"/>
<path d="M30.0113 15.4253L34.5665 6.31481C35.2553 4.93697 36.6636 4.06677 38.2039 4.06677H65.0665C67.3126 4.06677 69.1332 5.88744 69.1332 8.13352V29.9396H61V14.1638C61 13.0793 60.1207 12.2 59.0362 12.2H41.9312C41.1874 12.2 40.5074 12.6203 40.1748 13.2855L34.5817 24.4715H30.0115V15.4253H30.0113Z" fill="#A0C8FF"/>
<path d="M65.0667 4.06677H59.4209C61.6667 4.06677 63.4876 5.88744 63.4876 8.13352V29.9396H69.1335V8.13328C69.1333 5.88744 67.3126 4.06677 65.0667 4.06677Z" fill="#91B2FA"/>
<path d="M8.13325 85.4001H85.4C89.8919 85.4001 93.5332 81.7587 93.5332 77.2668V36.6001C93.5332 32.1082 89.8919 28.4668 85.4 28.4668H37.808C37.0671 28.4668 36.3894 28.0498 36.0553 27.3885L29.51 14.4329C28.8183 13.0634 27.4144 12.2001 25.8802 12.2001H8.13325C3.64134 12.2001 0 15.8414 0 20.3333V77.2666C0 81.7587 3.64134 85.4001 8.13325 85.4001Z" fill="#868EAF"/>
<path d="M85.4 28.4668H79.7541C84.246 28.4668 87.8874 32.1081 87.8874 36.6V77.2668C87.8874 81.7587 84.246 85.4 79.7541 85.4H85.4C89.8919 85.4 93.5332 81.7587 93.5332 77.2668V36.6C93.5332 32.1081 89.8919 28.4668 85.4 28.4668Z" fill="#7D83AD"/>
<path d="M23.8641 14.4329L30.4094 27.3885C30.7435 28.0498 31.4213 28.4668 32.1621 28.4668H37.808C37.0671 28.4668 36.3894 28.0498 36.0553 27.3885L29.51 14.4329C28.8183 13.0634 27.4144 12.2001 25.8802 12.2001H20.2343C21.7685 12.2001 23.1724 13.0636 23.8641 14.4329Z" fill="#7D83AD"/>
<path d="M80.3563 43.2638C81.7848 41.5321 81.539 38.9703 79.8073 37.5418C78.0757 36.1134 75.5139 36.3592 74.0854 38.0909C72.657 39.8225 72.9028 42.3843 74.6344 43.8128C76.3661 45.2412 78.9279 44.9954 80.3563 43.2638Z" fill="#FA8EBB"/>
<path d="M59.0362 69.1333H22.297C21.2125 69.1333 20.3333 68.254 20.3333 67.1695V46.6971C20.3333 45.6126 21.2125 44.7333 22.297 44.7333H59.0362C60.1207 44.7333 61 45.6126 61 46.6971V67.1695C61 68.2542 60.1207 69.1333 59.0362 69.1333Z" fill="#BDD3DD"/>
<path d="M81.3333 70.9743H73.2C72.1832 70.9743 71.3589 70.15 71.3589 69.1333C71.3589 68.1165 72.1832 67.2922 73.2 67.2922H81.3333C82.35 67.2922 83.1743 68.1165 83.1743 69.1333C83.1743 70.15 82.3502 70.9743 81.3333 70.9743Z" fill="#BDD3DD"/>
<path d="M101.667 65.0667L113.292 76.6916C113.66 77.0598 114.159 77.2667 114.68 77.2667H119.967C121.09 77.2667 122 76.3563 122 75.2335V38.6335C122 37.5104 121.09 36.6002 119.967 36.6002H114.68C114.159 36.6002 113.66 36.8072 113.291 37.1754L101.667 48.8V65.0667Z" fill="#868EAF"/>
<path d="M30.5 59.7912C29.4832 59.7912 28.659 58.9669 28.659 57.9501V55.9166C28.659 54.8999 29.4832 54.0756 30.5 54.0756C31.5167 54.0756 32.341 54.8999 32.341 55.9166V57.9501C32.341 58.9669 31.5167 59.7912 30.5 59.7912Z" fill="#ABC4D6"/>
<path d="M40.6665 59.7912C39.6498 59.7912 38.8255 58.9669 38.8255 57.9501V55.9166C38.8255 54.8999 39.6498 54.0756 40.6665 54.0756C41.6833 54.0756 42.5075 54.8999 42.5075 55.9166V57.9501C42.5075 58.9669 41.6835 59.7912 40.6665 59.7912Z" fill="#ABC4D6"/>
<path d="M50.8332 59.7912C49.8165 59.7912 48.9922 58.9669 48.9922 57.9501V55.9166C48.9922 54.8999 49.8165 54.0756 50.8332 54.0756C51.85 54.0756 52.6743 54.8999 52.6743 55.9166V57.9501C52.6743 58.9669 51.8502 59.7912 50.8332 59.7912Z" fill="#ABC4D6"/>
<path d="M59.0362 44.7333H53.3903C54.4748 44.7333 55.3541 45.6126 55.3541 46.6971V67.1695C55.3541 68.254 54.4748 69.1333 53.3903 69.1333H59.0362C60.1207 69.1333 61 68.254 61 67.1695V46.6971C61 45.6126 60.1207 44.7333 59.0362 44.7333Z" fill="#ABC4D6"/>
<path d="M0 28.4668H37.808C37.0671 28.4668 36.3894 28.0497 36.0553 27.3884L34.7398 24.7847H0V28.4668Z" fill="#7D83AD"/>
<path d="M97.6 20.3333C102.168 20.3333 105.856 16.5677 105.73 11.9715C105.609 7.54144 101.863 4.06677 97.4309 4.06677H79.3C78.177 4.06677 77.2668 4.97699 77.2668 6.10002V18.3C77.2668 19.4231 78.177 20.3333 79.3 20.3333H97.6Z" fill="#A0C8FF"/>
<path d="M105.73 11.9715C105.609 7.54144 101.863 4.06677 97.4309 4.06677H85.4V20.3335H97.6C102.168 20.3333 105.856 16.5677 105.73 11.9715Z" fill="#868EAF"/>
<path d="M105.73 11.9715C105.609 7.54144 101.863 4.06677 97.4309 4.06677H91.785C96.2168 4.06677 99.9629 7.54144 100.084 11.9715C100.21 16.5677 96.5221 20.3333 91.9541 20.3333H97.6C102.168 20.3333 105.856 16.5677 105.73 11.9715Z" fill="#7D83AD"/>
<path d="M113.291 37.1751L112.025 38.441V75.4257L113.291 76.6916C113.66 77.0598 114.159 77.2667 114.68 77.2667H115.708V36.6H114.68C114.159 36.6 113.66 36.8069 113.291 37.1751Z" fill="#A0C8FF"/>
</g>
<defs>
<clipPath id="clip0">
<rect width="122" height="122" fill="white"/>
</clipPath>
</defs>
</svg>
