<?xml version="1.0" standalone="no"?>
<!DOCTYPE svg PUBLIC "-//W3C//DTD SVG 20010904//EN"
 "http://www.w3.org/TR/2001/REC-SVG-20010904/DTD/svg10.dtd">
<svg version="1.0" xmlns="http://www.w3.org/2000/svg"
 width="278.000000pt" height="278.000000pt" viewBox="0 0 278.000000 278.000000"
 preserveAspectRatio="xMidYMid meet">

<g transform="translate(0.000000,278.000000) scale(0.100000,-0.100000)"
fill="#F3D549" stroke="none">
<path d="M92 2763 c-18 -9 -45 -32 -60 -51 l-27 -35 -3 -1275 -2 -1274 22 -39
c12 -22 38 -50 58 -62 l35 -22 683 -3 682 -3 0 541 0 540 -185 0 -185 0 0 210
0 210 184 0 183 0 6 228 c6 249 16 307 67 398 61 105 187 187 340 220 83 19
286 24 393 11 l67 -9 0 -189 0 -189 -148 0 c-133 0 -152 -2 -192 -22 -33 -17
-51 -35 -68 -68 -20 -41 -22 -58 -22 -212 l0 -168 208 0 208 0 -28 -207 c-15
-115 -27 -209 -28 -210 0 -2 -81 -3 -180 -3 l-180 0 0 -540 0 -540 354 0 c237
0 364 4 387 11 46 16 78 46 100 94 18 38 19 96 19 1289 0 1249 0 1250 -21
1293 -14 29 -35 52 -63 68 l-43 25 -1264 0 c-1150 0 -1267 -2 -1297 -17z"/>
</g>
</svg>
