<?xml version="1.0" standalone="no"?>
<!DOCTYPE svg PUBLIC "-//W3C//DTD SVG 20010904//EN"
 "http://www.w3.org/TR/2001/REC-SVG-20010904/DTD/svg10.dtd">
<svg version="1.0" xmlns="http://www.w3.org/2000/svg"
 width="277.000000pt" height="277.000000pt" viewBox="0 0 277.000000 277.000000"
 preserveAspectRatio="xMidYMid meet">

<g transform="translate(0.000000,277.000000) scale(0.100000,-0.100000)"
fill="#000000" stroke="none">
<path d="M530 2759 c-196 -30 -375 -159 -460 -332 -72 -147 -71 -124 -68
-1085 3 -951 -3 -863 71 -1012 48 -97 170 -216 270 -264 146 -69 101 -66 1034
-66 566 0 859 4 895 11 29 6 94 30 144 54 152 73 265 203 322 369 l27 81 0
865 0 865 -27 80 c-71 206 -213 347 -422 418 -60 21 -80 21 -896 23 -459 1
-860 -2 -890 -7z m1440 -382 c211 -64 368 -230 415 -440 14 -63 16 -142 13
-592 l-3 -520 -26 -66 c-39 -101 -76 -158 -148 -229 -68 -67 -145 -114 -241
-146 -51 -18 -94 -19 -600 -19 l-545 0 -65 23 c-212 76 -359 249 -396 465 -13
74 -15 171 -11 570 3 334 8 496 16 527 60 222 254 401 474 439 29 5 279 8 557
7 437 -2 512 -5 560 -19z"/>
<path d="M826 2184 c-135 -42 -239 -161 -266 -303 -13 -71 -13 -941 0 -1012
23 -123 104 -230 215 -285 l60 -29 550 0 550 0 60 31 c74 39 148 116 183 192
l27 57 0 540 0 540 -34 67 c-40 81 -104 143 -186 184 l-60 29 -525 2 c-445 2
-532 0 -574 -13z m1167 -156 c49 -25 71 -112 42 -168 -32 -62 -129 -80 -184
-35 -116 98 6 273 142 203z m-478 -143 c381 -100 523 -567 261 -861 -103 -116
-234 -175 -387 -176 -235 -1 -433 140 -509 362 -29 84 -32 218 -6 305 54 181
195 321 375 371 64 17 196 17 266 -1z"/>
<path d="M1269 1696 c-94 -36 -155 -94 -198 -186 -20 -44 -25 -71 -26 -135 0
-71 4 -88 33 -147 95 -193 320 -253 499 -132 165 113 192 353 56 504 -69 77
-128 103 -238 107 -59 2 -102 -2 -126 -11z"/>
</g>
</svg>
