<?xml version="1.0" standalone="no"?>
<!DOCTYPE svg PUBLIC "-//W3C//DTD SVG 20010904//EN"
 "http://www.w3.org/TR/2001/REC-SVG-20010904/DTD/svg10.dtd">
<svg version="1.0" xmlns="http://www.w3.org/2000/svg"
 width="278.000000pt" height="278.000000pt" viewBox="0 0 278.000000 278.000000"
 preserveAspectRatio="xMidYMid meet">

<g transform="translate(0.000000,278.000000) scale(0.100000,-0.100000)"
fill="#000000" stroke="none">
<path d="M238 2751 c-95 -37 -160 -100 -206 -198 l-27 -58 0 -1100 c0 -1055 1
-1102 19 -1150 39 -102 110 -176 216 -221 43 -18 85 -19 1105 -22 1105 -3
1147 -2 1228 39 61 32 134 106 164 168 l28 56 0 1125 0 1125 -28 55 c-37 72
-96 131 -165 166 l-57 29 -1115 2 c-1065 2 -1117 1 -1162 -16z m498 -434 c106
-28 174 -118 174 -231 0 -110 -62 -191 -169 -222 -188 -55 -360 139 -280 316
35 77 93 125 169 141 52 10 52 10 106 -4z m1316 -588 c172 -37 296 -170 348
-376 18 -70 20 -112 20 -500 l0 -423 -222 2 -223 3 -5 420 c-5 462 -4 453 -69
508 -99 83 -242 52 -316 -68 l-30 -48 -3 -409 -3 -408 -224 0 -225 0 0 645 0
645 225 0 225 0 0 -87 0 -88 19 30 c77 124 296 193 483 154z m-1152 -46 c1
-68 1 -421 1 -840 l-1 -413 -225 0 -225 0 0 638 c0 351 3 641 6 645 3 3 105 6
225 7 l219 1 0 -38z"/>
</g>
</svg>
