<svg width="119" height="116" viewBox="0 0 119 116" fill="none" xmlns="http://www.w3.org/2000/svg">
<path d="M25.0891 1.85998C22.5624 2.07072 19.7016 2.45192 18.7793 2.75643C12.5735 4.71907 5.72189 10.5552 3.08405 16.1907C0.282852 22.1168 0.344542 20.8832 1.04459 58.9937C1.64807 91.8475 1.71965 93.4484 2.57653 96.4726C3.88442 101.091 5.79682 104.178 9.74574 107.926C12.536 110.586 13.8603 111.506 16.7942 112.808C18.7924 113.675 21.4237 114.572 22.6509 114.796C24.1739 115.055 36.4878 114.994 60.6036 114.551C91.0856 113.991 96.7336 113.805 98.8319 113.232C106.009 111.334 112.532 105.997 115.577 99.5321C118.418 93.5231 118.33 95.6199 117.614 56.6059C117.005 23.4646 116.92 21.1246 116.161 18.8379C113.172 9.97823 105.709 3.17261 96.7725 1.11838C94.6125 0.624 89.3401 0.597603 61.9765 1.01808C44.2261 1.30305 27.6578 1.64847 25.0891 1.85998ZM64.5465 14.6509C74.4799 15.8652 83.0717 19.8155 90.0239 26.3429C110.065 45.1597 107.233 76.9675 84.1472 92.1397C80.1465 94.7602 75.923 96.7275 71.4337 98.0013C68.749 98.7901 66.9384 98.9466 60.8259 99.1C53.9966 99.2665 53.1519 99.1998 49.2965 98.2436C47.0085 97.6694 43.7832 96.5784 42.0832 95.8702L39.0227 94.5707L34.8301 95.9212C32.5248 96.7031 27.3685 98.3999 23.4288 99.7458C19.4462 101.051 16.175 102.056 16.1727 101.933C16.1705 101.81 17.7235 96.8106 19.5964 90.8605L22.9816 79.994L21.6286 77.5129C15.9095 66.9368 14.6736 54.7584 18.2297 44.012C24.5411 24.8344 44.3846 12.2277 64.5465 14.6509Z" fill="#cf1552"/>
</svg>
