<svg width="112" height="112" viewBox="0 0 112 112" fill="none" xmlns="http://www.w3.org/2000/svg">
<path d="M97.8788 84.7945L65.7053 52.6212C65.4615 52.3774 65.1721 52.184 64.8536 52.0521C64.5352 51.9202 64.1938 51.8523 63.8491 51.8523C63.5043 51.8523 63.163 51.9202 62.8445 52.0521C62.526 52.184 62.2366 52.3774 61.9929 52.6212L47.1439 67.4706C46.6517 67.9629 46.3751 68.6305 46.3751 69.3267C46.3751 70.0228 46.6517 70.6905 47.1439 71.1828L79.3172 103.356C79.6532 103.692 80.074 103.931 80.5348 104.046C80.9957 104.162 81.4792 104.15 81.9339 104.012C82.3887 103.875 82.7975 103.616 83.1169 103.264C83.4362 102.913 83.6541 102.481 83.7473 102.015L85.8791 91.3566L96.5374 89.2248C97.0034 89.1317 97.4353 88.9138 97.7871 88.5944C98.1389 88.2751 98.3975 87.8662 98.5352 87.4115C98.6728 86.9567 98.6845 86.4731 98.5689 86.0122C98.4533 85.5513 98.2148 85.1305 97.8788 84.7945Z" fill="url(#paint0_linear)"/>
<path d="M66.5 60.375H45.5C44.8038 60.375 44.1361 60.6516 43.6438 61.1438C43.1516 61.6361 42.875 62.3038 42.875 63V108.5C42.875 108.975 43.004 109.441 43.2482 109.849C43.4923 110.256 43.8425 110.59 44.2614 110.814C44.6803 111.038 45.1522 111.145 45.6267 111.122C46.1013 111.099 46.5607 110.948 46.956 110.684L56 104.655L65.044 110.684C65.4393 110.948 65.8987 111.099 66.3733 111.122C66.8478 111.145 67.3197 111.038 67.7386 110.814C68.1575 110.59 68.5077 110.256 68.7518 109.849C68.996 109.441 69.125 108.975 69.125 108.5V63C69.125 62.3038 68.8484 61.6361 68.3562 61.1438C67.8639 60.6516 67.1962 60.375 66.5 60.375Z" fill="url(#paint1_linear)"/>
<path d="M56 76.125C76.7797 76.125 93.625 59.2797 93.625 38.5C93.625 17.7203 76.7797 0.875 56 0.875C35.2203 0.875 18.375 17.7203 18.375 38.5C18.375 59.2797 35.2203 76.125 56 76.125Z" fill="url(#paint2_linear)"/>
<path d="M56 65.625C70.9807 65.625 83.125 53.4807 83.125 38.5C83.125 23.5193 70.9807 11.375 56 11.375C41.0193 11.375 28.875 23.5193 28.875 38.5C28.875 53.4807 41.0193 65.625 56 65.625Z" fill="url(#paint3_linear)"/>
<path d="M71.6454 33.2422C71.4948 32.7785 71.218 32.366 70.8461 32.0508C70.4741 31.7356 70.0218 31.5302 69.5397 31.4576L61.8332 30.2969L58.3478 23.326C58.1298 22.89 57.7947 22.5233 57.38 22.267C56.9653 22.0107 56.4875 21.875 56 21.875C55.5125 21.875 55.0346 22.0107 54.62 22.267C54.2053 22.5233 53.8702 22.89 53.6521 23.326L50.1668 30.2969L42.4602 31.4576C41.9782 31.5302 41.5259 31.7356 41.154 32.0508C40.7821 32.366 40.5054 32.7785 40.3547 33.2421C40.204 33.7057 40.1855 34.2021 40.301 34.6757C40.4166 35.1492 40.6618 35.5813 41.0091 35.9234L46.5618 41.3921L45.2841 49.0801C45.2041 49.561 45.2597 50.0547 45.4445 50.5058C45.6294 50.9569 45.9362 51.3477 46.3306 51.6342C46.725 51.9208 47.1914 52.0919 47.6776 52.1283C48.1637 52.1646 48.6504 52.0649 49.0831 51.8403L56 48.2497L62.9169 51.8405C63.3495 52.0652 63.8362 52.1649 64.3224 52.1285C64.8085 52.0921 65.275 51.921 65.6694 51.6345C66.0638 51.3479 66.3706 50.9572 66.5554 50.506C66.7403 50.0549 66.7958 49.5612 66.7159 49.0803L65.4382 41.3924L70.9909 35.9236C71.3382 35.5815 71.5834 35.1495 71.699 34.6759C71.8146 34.2022 71.7961 33.7058 71.6454 33.2422Z" fill="url(#paint4_linear)"/>
<defs>
<linearGradient id="paint0_linear" x1="64.7642" y1="85.7358" x2="78.0047" y2="72.4953" gradientUnits="userSpaceOnUse">
<stop stop-color="#FBEBCA"/>
<stop offset="1" stop-color="#FCF2DC"/>
</linearGradient>
<linearGradient id="paint1_linear" x1="37.5189" y1="104.231" x2="74.4811" y2="67.2689" gradientUnits="userSpaceOnUse">
<stop stop-color="#F6D084"/>
<stop offset="1" stop-color="#FAE4B9"/>
</linearGradient>
<linearGradient id="paint2_linear" x1="29.4077" y1="65.0923" x2="82.5923" y2="11.9077" gradientUnits="userSpaceOnUse">
<stop stop-color="#8177B8"/>
<stop offset="1" stop-color="#ABA4D0"/>
</linearGradient>
<linearGradient id="paint3_linear" x1="36.8287" y1="57.6712" x2="75.1712" y2="19.3287" gradientUnits="userSpaceOnUse">
<stop stop-color="#D5D2E7"/>
<stop offset="1" stop-color="#F1F0F7"/>
</linearGradient>
<linearGradient id="paint4_linear" x1="44.9605" y1="50.3101" x2="67.0394" y2="28.2313" gradientUnits="userSpaceOnUse">
<stop stop-color="#E87676"/>
<stop offset="1" stop-color="#F2B3B3"/>
</linearGradient>
</defs>
</svg>
