<?xml version="1.0" standalone="no"?>
<!DOCTYPE svg PUBLIC "-//W3C//DTD SVG 20010904//EN"
 "http://www.w3.org/TR/2001/REC-SVG-20010904/DTD/svg10.dtd">
<svg version="1.0" xmlns="http://www.w3.org/2000/svg"
 width="277.000000pt" height="278.000000pt" viewBox="0 0 277.000000 278.000000"
 preserveAspectRatio="xMidYMid meet">

<g transform="translate(0.000000,278.000000) scale(0.100000,-0.100000)"
fill="#cf1552" stroke="none">
<path d="M595 2769 c-60 -4 -128 -12 -150 -19 -148 -45 -313 -184 -378 -320
-69 -143 -67 -113 -67 -1041 0 -800 1 -839 20 -913 29 -113 73 -189 165 -282
65 -66 96 -89 165 -122 47 -22 109 -45 138 -51 36 -7 328 -11 900 -11 723 0
857 2 907 15 171 43 328 170 403 326 70 145 67 94 67 1044 0 807 -1 864 -18
920 -67 217 -241 386 -452 440 -51 13 -176 16 -825 18 -421 1 -814 0 -875 -4z
m930 -329 c235 -34 437 -134 599 -296 467 -467 386 -1240 -168 -1599 -96 -62
-197 -108 -304 -137 -64 -18 -107 -21 -252 -22 -162 -1 -182 1 -273 26 -54 15
-130 43 -170 61 l-72 33 -100 -31 c-55 -18 -178 -57 -272 -88 -95 -30 -173
-53 -173 -50 0 3 39 124 86 268 l85 263 -31 61 c-131 260 -155 557 -66 817
158 464 634 762 1111 694z"/>
<path d="M1305 2290 c-296 -32 -562 -216 -697 -485 -14 -27 -38 -88 -54 -135
-26 -79 -28 -96 -28 -250 0 -160 1 -168 32 -260 18 -52 54 -135 80 -185 l48
-90 -52 -158 c-37 -109 -49 -157 -39 -153 42 16 301 96 311 96 6 0 47 -18 90
-40 532 -267 1151 35 1270 620 20 99 15 289 -10 380 -118 426 -521 706 -951
660z m-178 -408 c14 -9 113 -237 113 -260 0 -10 -20 -42 -45 -72 -25 -30 -45
-59 -45 -63 0 -22 78 -122 140 -180 71 -67 174 -132 226 -143 28 -5 34 -1 80
60 27 36 57 68 66 71 15 5 225 -89 256 -115 18 -16 14 -79 -7 -125 -31 -69
-102 -116 -203 -135 -55 -11 -146 10 -266 59 -116 48 -188 97 -289 198 -212
212 -293 373 -265 523 14 75 53 145 95 171 33 19 120 26 144 11z"/>
</g>
</svg>
