<?xml version="1.0" standalone="no"?>
<!DOCTYPE svg PUBLIC "-//W3C//DTD SVG 20010904//EN"
 "http://www.w3.org/TR/2001/REC-SVG-20010904/DTD/svg10.dtd">
<svg version="1.0" xmlns="http://www.w3.org/2000/svg"
 width="278.000000pt" height="277.000000pt" viewBox="0 0 278.000000 277.000000"
 preserveAspectRatio="xMidYMid meet">

<g transform="translate(0.000000,277.000000) scale(0.100000,-0.100000)"
fill="#000000" stroke="none">
<path d="M555 2763 c-254 -36 -465 -220 -532 -464 -17 -59 -18 -134 -18 -924
l0 -860 28 -80 c59 -167 169 -296 311 -365 149 -73 104 -70 1042 -70 805 0
844 1 918 20 114 29 189 73 282 165 87 87 141 179 169 290 22 88 22 1718 0
1813 -49 208 -208 378 -420 450 l-80 27 -835 1 c-459 1 -848 -1 -865 -3z
m1479 -664 c163 -11 232 -35 292 -102 89 -97 108 -206 107 -612 0 -428 -19
-530 -113 -622 -104 -102 -151 -107 -935 -108 -666 0 -754 5 -849 50 -62 29
-118 88 -148 154 -61 133 -64 873 -5 1030 24 66 92 142 152 171 24 11 72 26
106 31 157 26 1060 31 1393 8z"/>
<path d="M1170 1379 l0 -291 73 40 c39 21 135 72 212 112 77 40 169 88 204
107 l63 35 -68 37 c-38 21 -136 73 -219 116 -82 43 -173 91 -201 106 -28 16
-54 29 -58 29 -3 0 -6 -131 -6 -291z"/>
</g>
</svg>
